# xmcd
#
# Track frame offsets:
#	150
#	11704
#	28360
#	42267
#	54846
#	67907
#	81139
#	91928
#	104217
#	115355
#	127968
#	138062
#	149129
#	160180
#	176570
#	190350
#	203423
#	217272
#	228407
#	243234
#	255416
#	268201
#	280351
#	293576
#	308251
#
# Disc length: 4283 seconds
#
# Revision: 1
# Processed by: cddbd v1.5.2PL0 Copyright (c) Steve Scherf et al.
# Submitted via: audiograbber 1.83.01
#
DISCID=6c10b919
DTITLE=25 All Time Hits - Charlie Rich
DYEAR=1900
DGENRE=Country
TTITLE0=Set Me Free
TTITLE1=Life's Little Ups And Downs
TTITLE2=Nice 'N Easy
TTITLE3=A Part Of Your Life
TTITLE4=I Take It On Home
TTITLE5=Behind Closed Doors
TTITLE6=Tomorrow Night
TTITLE7=The Most Beautiful Girl
TTITLE8=There Won't Be Anymore
TTITLE9=A Very Special Love Song
TTITLE10=I Don't See Me In Your Eyes Anymore
TTITLE11=I Love My Friend
TTITLE12=She Called Me Baby
TTITLE13=My Elusive Dreams
TTITLE14=Everytime You Touch Me I Get High
TTITLE15=All Over Me
TTITLE16=Since I Fell For You
TTITLE17=America The Beautiful
TTITLE18=Road Song
TTITLE19=My Mountain Dew
TTITLE20=Easy Look
TTITLE21=Rollin' With The Flow
TTITLE22=Beautiful Woman
TTITLE23=On My Knees
TTITLE24=Spanish Eyes
EXTD=
EXTT0=
EXTT1=
EXTT2=
EXTT3=
EXTT4=
EXTT5=
EXTT6=
EXTT7=
EXTT8=
EXTT9=
EXTT10=
EXTT11=
EXTT12=
EXTT13=
EXTT14=
EXTT15=
EXTT16=
EXTT17=
EXTT18=
EXTT19=
EXTT20=
EXTT21=
EXTT22=
EXTT23=
EXTT24=
PLAYORDER=
